# Blender 5.2.0 LTS
# www.blender.org
mtllib flywheel.mtl
o cube.008_cube.006
v 0.625000 0.375000 1.562500
v 0.625000 0.375000 0.937500
v 0.625000 0.625000 1.562500
v 0.625000 0.625000 0.937500
v 0.375000 0.625000 1.562500
v 0.375000 0.625000 0.937500
v 0.375000 0.375000 1.562500
v 0.375000 0.375000 0.937500
v 0.318782 0.375000 0.937500
v 1.339689 0.375000 1.162913
v 0.897748 0.375000 0.720971
v 1.339689 0.625000 1.162913
v 0.897748 0.625000 0.720971
v 1.162913 0.625000 1.339689
v 0.720971 0.625000 0.897748
v 1.162913 0.375000 1.339689
v 0.720971 0.375000 0.897748
v 0.937500 0.625000 0.681218
v 0.681218 0.625000 0.937500
v 0.681218 0.375000 0.937500
v 0.937500 0.375000 0.681218
v 1.562500 0.375000 0.375000
v 1.562500 0.625000 0.375000
v 0.937500 0.625000 0.375000
v 1.562500 0.625000 0.625000
v 1.562500 0.375000 0.625000
v 0.937500 0.375000 0.625000
v 0.937500 0.625000 0.318782
v 1.162912 0.375000 -0.339689
v 0.720971 0.375000 0.102253
v 1.162912 0.625000 -0.339689
v 0.720971 0.625000 0.102253
v 1.339689 0.625000 -0.162912
v 0.897747 0.625000 0.279029
v 1.339689 0.375000 -0.162912
v 0.897747 0.375000 0.279029
v 0.681218 0.625000 0.062500
v 0.937500 0.375000 0.318782
v 0.681218 0.375000 0.062500
v 0.500000 0.625000 0.500000
v 0.500000 0.375000 0.500000
v 0.375000 0.375000 -0.562500
v 0.375000 0.375000 0.062500
v 0.375000 0.625000 -0.562500
v 0.375000 0.625000 0.062500
v 0.625000 0.625000 -0.562500
v 0.625000 0.625000 0.062500
v 0.625000 0.375000 -0.562500
v 0.625000 0.375000 0.062500
v -0.339689 0.375000 -0.162912
v 0.102252 0.375000 0.279029
v -0.339689 0.625000 -0.162912
v 0.102252 0.625000 0.279029
v -0.162912 0.625000 -0.339689
v 0.279029 0.625000 0.102253
v -0.162912 0.375000 -0.339689
v 0.279029 0.375000 0.102253
v 0.318782 0.625000 0.062500
v 0.318782 0.375000 0.062500
v 0.062500 0.375000 0.318782
v -0.562500 0.375000 0.625000
v -0.562500 0.625000 0.625000
v -0.562500 0.625000 0.375000
v -0.562500 0.375000 0.375000
v 0.062500 0.625000 0.318782
v -0.162912 0.375000 1.339689
v 0.279029 0.375000 0.897747
v -0.162912 0.625000 1.339689
v 0.279029 0.625000 0.897747
v -0.339689 0.625000 1.162912
v 0.102253 0.625000 0.720971
v -0.339689 0.375000 1.162912
v 0.102253 0.375000 0.720971
v 0.318782 0.625000 0.937500
v 0.062500 0.625000 0.681218
v 0.062500 0.375000 0.681218
v 0.750000 0.375000 0.750000
v 0.750000 0.375000 0.250000
v 0.250000 0.375000 0.750000
v 0.250000 0.375000 0.250000
v 0.750000 0.187500 0.750000
v 0.750000 0.187500 0.250000
v 0.250000 0.187500 0.750000
v 0.250000 0.187500 0.250000
v 0.750000 0.625000 0.750000
v 0.750000 0.625000 0.250000
v 0.250000 0.625000 0.750000
v 0.250000 0.625000 0.250000
v 0.750000 0.812500 0.750000
v 0.750000 0.812500 0.250000
v 0.250000 0.812500 0.750000
v 0.250000 0.812500 0.250000
v 0.250000 0.375000 0.625000
v 0.062500 0.375000 0.625000
v 0.250000 0.187500 0.625000
v 0.062500 0.187500 0.625000
v 0.062500 0.375000 0.500000
v 0.250000 0.375000 0.500000
v 0.062500 0.187500 0.500000
v 0.250000 0.187500 0.500000
v 0.093750 0.218750 0.625000
v 0.093750 0.218750 0.687500
v 0.093750 0.343750 0.625000
v 0.093750 0.343750 0.687500
v 0.218750 0.218750 0.625000
v 0.218750 0.218750 0.687500
v 0.218750 0.343750 0.625000
v 0.218750 0.343750 0.687500
v 0.750000 0.375000 0.625000
v 0.750000 0.187500 0.625000
v 0.937500 0.187500 0.625000
v 0.937500 0.375000 0.500000
v 0.750000 0.375000 0.500000
v 0.937500 0.187500 0.500000
v 0.750000 0.187500 0.500000
v 0.906250 0.218750 0.625000
v 0.906250 0.218750 0.687500
v 0.906250 0.343750 0.625000
v 0.906250 0.343750 0.687500
v 0.781250 0.218750 0.625000
v 0.781250 0.218750 0.687500
v 0.781250 0.343750 0.625000
v 0.781250 0.343750 0.687500
v 0.062500 0.625000 0.625000
v 0.062500 0.625000 0.500000
v 0.250000 0.625000 0.500000
v 0.250000 0.812500 0.500000
v 0.937500 0.625000 0.625000
v 0.937500 0.625000 0.500000
v 0.750000 0.625000 0.500000
v 0.750000 0.812500 0.500000
v 0.250000 0.375000 0.375000
v 0.062500 0.375000 0.375000
v 0.250000 0.187500 0.375000
v 0.062500 0.187500 0.375000
v 0.093750 0.218750 0.375000
v 0.093750 0.218750 0.312500
v 0.093750 0.343750 0.375000
v 0.093750 0.343750 0.312500
v 0.218750 0.218750 0.375000
v 0.218750 0.218750 0.312500
v 0.218750 0.343750 0.375000
v 0.218750 0.343750 0.312500
v 0.750000 0.375000 0.375000
v 0.937500 0.375000 0.375000
v 0.750000 0.187500 0.375000
v 0.937500 0.187500 0.375000
v 0.906250 0.218750 0.375000
v 0.906250 0.218750 0.312500
v 0.906250 0.343750 0.375000
v 0.906250 0.343750 0.312500
v 0.781250 0.218750 0.375000
v 0.781250 0.218750 0.312500
v 0.781250 0.343750 0.375000
v 0.781250 0.343750 0.312500
v 0.062500 0.625000 0.375000
v 0.375000 -0.300000 0.375000
v 0.375000 -0.300000 0.625000
v 0.375000 0.700000 0.375000
v 0.375000 0.700000 0.625000
v 0.625000 -0.300000 0.375000
v 0.625000 -0.300000 0.625000
v 0.625000 0.700000 0.375000
v 0.625000 0.700000 0.625000
v 1.068750 0.312500 1.873085
v 0.940102 0.312500 1.562500
v 1.873084 0.312500 1.068751
v 1.562500 0.312500 0.940102
v 1.873085 0.312500 -0.068750
v 1.562500 0.312500 0.059898
v 1.068750 0.312500 -0.873084
v 0.940102 0.312500 -0.562500
v -0.068750 0.312500 -0.873084
v 0.059898 0.312500 -0.562500
v -0.873084 0.312500 -0.068750
v -0.562500 0.312500 0.059898
v -0.873084 0.312500 1.068750
v -0.562500 0.312500 0.940102
v -0.068750 0.312500 1.873084
v 0.059898 0.312500 1.562499
v 0.940102 0.500000 1.562500
v 0.059898 0.500000 1.562499
v 1.562500 0.500000 0.940102
v 1.562500 0.500000 0.059898
v 0.940102 0.500000 -0.562500
v 0.059898 0.500000 -0.562500
v -0.562500 0.500000 0.059898
v -0.562500 0.500000 0.940102
v 1.068750 0.500000 1.873085
v -0.068750 0.500000 1.873084
v 1.873085 0.500000 1.068751
v 1.873085 0.500000 -0.068750
v 1.068750 0.500000 -0.873084
v -0.068750 0.500000 -0.873084
v -0.873084 0.500000 -0.068750
v -0.873084 0.500000 1.068750
v 1.068750 0.687500 1.873085
v 0.940102 0.687500 1.562500
v 1.873084 0.687500 1.068751
v 1.562500 0.687500 0.940102
v 1.873085 0.687500 -0.068750
v 1.562500 0.687500 0.059898
v 1.068750 0.687500 -0.873084
v 0.940102 0.687500 -0.562500
v -0.068750 0.687500 -0.873084
v 0.059898 0.687500 -0.562500
v -0.873084 0.687500 -0.068750
v -0.562500 0.687500 0.059898
v -0.873084 0.687500 1.068750
v -0.562500 0.687500 0.940102
v -0.068750 0.687500 1.873084
v 0.059898 0.687500 1.562499
vn -1.0000 -0.0000 -0.0000
vn 1.0000 -0.0000 -0.0000
vn -0.0000 -0.0000 -1.0000
vn -0.0000 -0.0000 1.0000
vn -0.0000 1.0000 -0.0000
vn -0.0000 -1.0000 -0.0000
vn 0.7071 -0.0000 0.7071
vn 0.7071 -0.0000 -0.7071
vn -0.7071 -0.0000 -0.7071
vn -0.7071 -0.0000 0.7071
vt 0.375000 0.000000
vt 0.625000 0.000000
vt 0.625000 1.000000
vt 0.375000 1.000000
vt 0.375000 0.375000
vt 0.625000 0.375000
vt 0.625000 0.625000
vt 0.375000 0.625000
vt 0.562500 0.687500
vt 0.562500 0.500000
vt 0.687500 0.500000
vt 0.687500 0.687500
vt 0.812500 1.000000
vt 0.906250 0.781250
vt 1.000000 1.000000
vt 0.812500 0.937500
vt 0.812500 0.968750
vt 0.750000 0.968750
vt 0.750000 0.937500
vt 0.812500 0.812500
vt 0.750000 0.812500
vt 0.750000 0.750000
vt 0.812500 0.750000
vt 0.687500 1.000000
vt 0.562500 1.000000
vt 0.812500 0.687500
vt 0.875000 0.531250
vt 0.937500 0.531250
vt 0.937500 0.593750
vt 0.875000 0.593750
vt 0.218750 0.468750
vt 0.218750 0.375000
vt 0.468750 0.375000
vt 0.468750 0.468750
vt 0.468750 0.125000
vt 0.218750 0.125000
vt 0.125000 0.250000
vt 0.125000 0.312500
vt 0.031250 0.312500
vt 0.031250 0.250000
vt 0.218750 0.250000
vt 0.218750 0.312500
vt 0.218750 0.406250
vt 0.125000 0.406250
vt 0.562500 0.812500
vt 0.000000 0.812500
vt 0.062500 0.656250
vt 0.500000 0.656250
vt 0.562500 0.906250
vt 0.000000 0.906250
vt 0.062500 0.562500
vt 0.500000 0.562500
s 1
usemtl m_1
f 157/1/1 158/2/1 160/3/1 159/4/1
f 163/1/2 164/2/2 162/3/2 161/4/2
f 159/1/3 163/2/3 161/3/3 157/4/3
f 164/1/4 160/2/4 158/3/4 162/4/4
usemtl m_2
f 159/5/5 160/6/5 164/7/5 163/8/5
f 161/5/6 162/6/6 158/7/6 157/8/6
usemtl m_0
f 19/9/4 74/10/4 9/11/4 20/12/4
f 9/13/6 41/14/6 20/15/6
f 19/15/5 40/14/5 74/13/5
f 18/9/7 19/10/7 20/11/7 21/12/7
f 20/13/6 41/14/6 21/15/6
f 18/15/5 40/14/5 19/13/5
f 28/9/2 18/10/2 21/11/2 38/12/2
f 21/13/6 41/14/6 38/15/6
f 28/15/5 40/14/5 18/13/5
f 37/9/8 28/10/8 38/11/8 39/12/8
f 38/13/6 41/14/6 39/15/6
f 37/15/5 40/14/5 28/13/5
f 58/9/3 37/10/3 39/11/3 59/12/3
f 39/13/6 41/14/6 59/15/6
f 58/15/5 40/14/5 37/13/5
f 65/9/9 58/10/9 59/11/9 60/12/9
f 59/13/6 41/14/6 60/15/6
f 65/15/5 40/14/5 58/13/5
f 75/9/1 65/10/1 60/11/1 76/12/1
f 60/13/6 41/14/6 76/15/6
f 75/15/5 40/14/5 65/13/5
f 74/9/10 75/10/10 76/11/10 9/12/10
f 76/13/6 41/14/6 9/15/6
f 74/15/5 40/14/5 75/13/5
f 101/16/1 102/17/1 104/18/1 103/19/1
f 103/16/5 104/17/5 108/18/5 107/19/5
f 107/16/2 108/17/2 106/18/2 105/19/2
f 105/16/6 106/17/6 102/18/6 101/19/6
f 108/20/4 104/21/4 102/22/4 106/23/4
f 116/16/2 118/19/2 119/18/2 117/17/2
f 118/16/5 122/19/5 123/18/5 119/17/5
f 122/16/1 120/19/1 121/18/1 123/17/1
f 120/16/6 116/19/6 117/18/6 121/17/6
f 123/20/4 121/23/4 117/22/4 119/21/4
f 136/16/1 138/19/1 139/18/1 137/17/1
f 138/16/5 142/19/5 143/18/5 139/17/5
f 142/16/2 140/19/2 141/18/2 143/17/2
f 140/16/6 136/19/6 137/18/6 141/17/6
f 143/20/3 141/23/3 137/22/3 139/21/3
f 148/16/2 149/17/2 151/18/2 150/19/2
f 150/16/5 151/17/5 155/18/5 154/19/5
f 154/16/1 155/17/1 153/18/1 152/19/1
f 152/16/6 153/17/6 149/18/6 148/19/6
f 155/20/3 151/21/3 149/22/3 153/23/3
f 8/9/6 2/12/6 1/24/6 7/25/6
f 2/12/2 4/26/2 3/13/2 1/24/2
f 4/9/5 6/12/5 5/24/5 3/25/5
f 6/12/1 8/26/1 7/13/1 5/24/1
f 17/9/6 11/12/6 10/24/6 16/25/6
f 11/12/8 13/26/8 12/13/8 10/24/8
f 13/9/5 15/12/5 14/24/5 12/25/5
f 15/12/10 17/26/10 16/13/10 14/24/10
f 27/9/6 145/12/6 22/24/6 26/25/6
f 145/12/3 24/26/3 23/13/3 22/24/3
f 24/9/5 128/12/5 25/24/5 23/25/5
f 128/12/4 27/26/4 26/13/4 25/24/4
f 36/9/6 30/12/6 29/24/6 35/25/6
f 30/12/9 32/26/9 31/13/9 29/24/9
f 32/9/5 34/12/5 33/24/5 31/25/5
f 34/12/7 36/26/7 35/13/7 33/24/7
f 49/9/6 43/12/6 42/24/6 48/25/6
f 43/12/1 45/26/1 44/13/1 42/24/1
f 45/9/5 47/12/5 46/24/5 44/25/5
f 47/12/2 49/26/2 48/13/2 46/24/2
f 57/9/6 51/12/6 50/24/6 56/25/6
f 51/12/10 53/26/10 52/13/10 50/24/10
f 53/9/5 55/12/5 54/24/5 52/25/5
f 55/12/8 57/26/8 56/13/8 54/24/8
f 133/9/6 94/12/6 61/24/6 64/25/6
f 94/12/4 124/26/4 62/13/4 61/24/4
f 124/9/5 156/12/5 63/24/5 62/25/5
f 156/12/3 133/26/3 64/13/3 63/24/3
f 73/9/6 67/12/6 66/24/6 72/25/6
f 67/12/7 69/26/7 68/13/7 66/24/7
f 69/9/5 71/12/5 70/24/5 68/25/5
f 71/12/9 73/26/9 72/13/9 70/24/9
f 78/27/5 80/28/5 79/29/5 77/30/5
f 77/31/2 81/32/2 82/33/2 78/34/2
f 79/31/4 83/32/4 81/33/4 77/34/4
f 84/32/1 83/33/1 79/34/1 80/31/1
f 82/35/6 81/33/6 83/32/6 84/36/6
f 78/31/3 82/32/3 84/33/3 80/34/3
f 86/27/6 85/30/6 87/29/6 88/28/6
f 85/31/2 86/34/2 90/33/2 89/32/2
f 87/31/4 85/34/4 89/33/4 91/32/4
f 92/32/1 88/31/1 87/34/1 91/33/1
f 90/35/5 92/36/5 91/32/5 89/33/5
f 86/31/3 88/34/3 92/33/3 90/32/3
f 99/37/1 96/38/1 94/39/1 97/40/1
f 100/41/6 95/42/6 96/38/6 99/37/6
f 94/38/4 96/42/4 95/43/4 93/44/4
f 114/37/2 112/40/2 27/39/2 111/38/2
f 115/41/6 114/37/6 111/38/6 110/42/6
f 27/38/4 109/44/4 110/43/4 111/42/4
f 99/37/1 97/40/1 133/39/1 135/38/1
f 100/41/6 99/37/6 135/38/6 134/42/6
f 133/38/3 132/44/3 134/43/3 135/42/3
f 114/37/2 147/38/2 145/39/2 112/40/2
f 115/41/6 146/42/6 147/38/6 114/37/6
f 145/38/3 147/42/3 146/43/3 144/44/3
f 165/45/6 179/46/6 180/47/6 166/48/6
f 189/49/4 190/50/4 179/46/4 165/45/4
f 167/45/6 165/46/6 166/47/6 168/48/6
f 191/49/7 189/50/7 165/46/7 167/45/7
f 169/45/6 167/46/6 168/47/6 170/48/6
f 192/49/2 191/50/2 167/46/2 169/45/2
f 171/45/6 169/46/6 170/47/6 172/48/6
f 193/49/8 192/50/8 169/46/8 171/45/8
f 173/45/6 171/46/6 172/47/6 174/48/6
f 194/49/3 193/50/3 171/46/3 173/45/3
f 175/45/6 173/46/6 174/47/6 176/48/6
f 195/49/9 194/50/9 173/46/9 175/45/9
f 177/45/6 175/46/6 176/47/6 178/48/6
f 196/49/1 195/50/1 175/46/1 177/45/1
f 179/45/6 177/46/6 178/47/6 180/48/6
f 190/49/10 196/50/10 177/46/10 179/45/10
f 180/48/8 178/47/8 188/51/8 182/52/8
f 178/48/2 176/47/2 187/51/2 188/52/2
f 176/48/7 174/47/7 186/51/7 187/52/7
f 174/48/4 172/47/4 185/51/4 186/52/4
f 172/48/10 170/47/10 184/51/10 185/52/10
f 170/48/1 168/47/1 183/51/1 184/52/1
f 168/48/9 166/47/9 181/51/9 183/52/9
f 166/48/3 180/47/3 182/51/3 181/52/3
f 197/45/5 198/48/5 212/47/5 211/46/5
f 189/49/4 197/45/4 211/46/4 190/50/4
f 199/45/5 200/48/5 198/47/5 197/46/5
f 191/49/7 199/45/7 197/46/7 189/50/7
f 201/45/5 202/48/5 200/47/5 199/46/5
f 192/49/2 201/45/2 199/46/2 191/50/2
f 203/45/5 204/48/5 202/47/5 201/46/5
f 193/49/8 203/45/8 201/46/8 192/50/8
f 205/45/5 206/48/5 204/47/5 203/46/5
f 194/49/3 205/45/3 203/46/3 193/50/3
f 207/45/5 208/48/5 206/47/5 205/46/5
f 195/49/9 207/45/9 205/46/9 194/50/9
f 209/45/5 210/48/5 208/47/5 207/46/5
f 196/49/1 209/45/1 207/46/1 195/50/1
f 211/45/5 212/48/5 210/47/5 209/46/5
f 190/49/10 211/45/10 209/46/10 196/50/10
f 212/48/8 182/52/8 188/51/8 210/47/8
f 210/48/2 188/52/2 187/51/2 208/47/2
f 208/48/7 187/52/7 186/51/7 206/47/7
f 206/48/4 186/52/4 185/51/4 204/47/4
f 204/48/10 185/52/10 184/51/10 202/47/10
f 202/48/1 184/52/1 183/51/1 200/47/1
f 200/48/9 183/52/9 181/51/9 198/47/9
f 198/48/3 181/52/3 182/51/3 212/47/3
l 98 100
l 97 98
l 113 115
l 112 113
l 126 127
l 125 126
l 130 131
l 129 130
